<svg width="200" height="40" viewBox="0 0 200 40" xmlns="http://www.w3.org/2000/svg">
<g clip-path="url(#clip0_2079_222)">
<path d="M21.2212 33.29L21.1899 18.7494L13.9822 30.783H12.1646L4.95696 18.9374V33.29H1.10243V11.3537H4.45555L13.1361 25.863L21.7226 11.3537H25.0444L25.1071 33.29H21.2212ZM40.6784 11.0403C42.6423 11.0403 44.3554 11.4268 45.8178 12.1998C47.2802 12.9728 48.4084 14.1218 49.2023 15.6469C50.0171 17.1512 50.4244 18.9792 50.4244 21.131V33.29H46.3506V27.6493H34.9436V33.29H30.9324V21.131C30.9324 18.9792 31.3294 17.1512 32.1233 15.6469C32.938 14.1218 34.0766 12.9728 35.5391 12.1998C37.0015 11.4268 38.7146 11.0403 40.6784 11.0403ZM46.3506 24.2335V20.755C46.3506 18.7285 45.8491 17.2034 44.8463 16.1797C43.8435 15.1351 42.4438 14.6128 40.6471 14.6128C38.8504 14.6128 37.4507 15.1351 36.4479 16.1797C35.4451 17.2034 34.9436 18.7285 34.9436 20.755V24.2335H46.3506ZM75.0825 11.3537V33.29H71.1653V30.501C69.682 32.5693 67.3839 33.6034 64.271 33.6034C61.6805 33.6034 59.6435 32.7991 58.1602 31.1904C56.6769 29.5609 55.9352 27.2628 55.9352 24.2961V11.3537H60.0091V24.1394C60.0091 26.0824 60.4687 27.5553 61.388 28.5581C62.3281 29.54 63.6129 30.0309 65.2425 30.0309C66.9974 30.0309 68.3972 29.5086 69.4417 28.464C70.4863 27.3986 71.0086 25.8212 71.0086 23.7321V11.3537H75.0825ZM65.6812 9.88082C63.801 9.88082 62.3803 9.49432 61.4193 8.72133C60.4792 7.94833 59.9987 6.82018 59.9778 5.33686H62.8295C62.8504 6.10986 63.1011 6.70527 63.5816 7.12311C64.0621 7.54094 64.762 7.74986 65.6812 7.74986C66.5796 7.74986 67.2794 7.54094 67.7808 7.12311C68.3031 6.70527 68.5747 6.10986 68.5956 5.33686H71.416C71.3951 6.79929 70.8937 7.92744 69.9118 8.72133C68.9508 9.49432 67.5406 9.88082 65.6812 9.88082Z" fill="white"/>
<path d="M124.378 16.8064C122.309 15.6365 120.158 14.9262 117.922 14.6755V33.29H113.848V14.6755C111.592 14.9262 109.43 15.6365 107.361 16.8064L105.951 13.6727C107.414 12.7952 108.98 12.1371 110.652 11.6984C112.344 11.2597 114.078 11.0403 115.854 11.0403C117.63 11.0403 119.364 11.2597 121.056 11.6984C122.748 12.1371 124.325 12.7952 125.788 13.6727L124.378 16.8064ZM148.015 11.3537V26.5838C148.015 29.822 147.127 32.3081 145.351 34.0421C143.596 35.7762 141.162 36.6432 138.049 36.6432C136.211 36.6432 134.54 36.3716 133.035 35.8284C131.531 35.3061 130.257 34.554 129.212 33.5721L130.873 30.4383C132.816 32.1932 135.187 33.0707 137.987 33.0707C141.956 33.0707 143.941 30.9711 143.941 26.7718V25.1109C142.458 26.9912 140.306 27.9313 137.485 27.9313C134.707 27.9313 132.555 27.1374 131.03 25.5496C129.505 23.9619 128.742 21.6847 128.742 18.718V11.3537H132.816V18.53C132.816 20.4521 133.276 21.9145 134.195 22.9173C135.135 23.8992 136.441 24.3901 138.112 24.3901C139.888 24.3901 141.298 23.8679 142.343 22.8233C143.408 21.7578 143.941 20.1909 143.941 18.1226V11.3537H148.015ZM162.654 11.1657C165.62 11.1657 167.939 11.9178 169.611 13.422C171.282 14.9053 172.118 16.9736 172.118 19.6268C172.118 22.1756 171.355 24.1812 169.83 25.6437C168.305 27.0852 166.195 27.806 163.5 27.806C162.455 27.806 161.452 27.691 160.491 27.4612C159.53 27.2314 158.486 26.8449 157.358 26.3017V33.29H153.346V20.1596C153.346 17.2765 154.151 15.062 155.759 13.516C157.368 11.9491 159.666 11.1657 162.654 11.1657ZM162.779 24.6095C164.429 24.6095 165.714 24.1812 166.634 23.3247C167.574 22.4681 168.044 21.2668 168.044 19.7208C168.044 18.154 167.574 16.9318 166.634 16.0543C165.693 15.156 164.398 14.7068 162.748 14.7068C161.055 14.7068 159.729 15.1769 158.768 16.117C157.828 17.0571 157.358 18.3838 157.358 20.0969V22.7606C158.11 23.3665 158.945 23.8261 159.865 24.1394C160.805 24.4528 161.776 24.6095 162.779 24.6095Z" fill="white"/>
<circle cx="91.8998" cy="21.9999" r="7.29534" fill="#FF7600"/>
</g>
<defs>
<clipPath id="clip0_2079_222">
<rect width="200" height="40" fill="white"/>
</clipPath>
</defs>
</svg>
