<svg width="36" height="36" viewBox="0 0 36 36" fill="none" xmlns="http://www.w3.org/2000/svg">
<rect width="36" height="36" rx="12" fill="#8E8888"/>
<path fill-rule="evenodd" clip-rule="evenodd" d="M20.8321 16.816C20.1053 17.5427 19.0959 18.0003 17.9789 18.0003C16.8753 18.0003 15.8525 17.5427 15.1257 16.816C14.399 16.0892 13.9414 15.0798 13.9414 13.9628C13.9414 12.8458 14.399 11.8364 15.1257 11.1096C15.8525 10.3829 16.8619 9.92529 17.9789 9.92529C19.0959 9.92529 20.1053 10.3829 20.8321 11.1096C21.5588 11.8364 22.0164 12.8458 22.0164 13.9628C22.0164 15.0798 21.5588 16.0892 20.8321 16.816ZM17.9789 12.119C17.4809 12.119 17.0234 12.3209 16.6869 12.6573C16.3639 12.9938 16.1486 13.4514 16.1486 13.9493C16.1486 14.4473 16.3504 14.9049 16.6869 15.2413C17.0099 15.5778 17.4675 15.7797 17.9789 15.7797C18.4769 15.7797 18.9344 15.5778 19.2709 15.2413C19.6074 14.9183 19.8092 14.4608 19.8092 13.9493C19.8092 13.4514 19.6074 12.9938 19.2709 12.6573C18.9479 12.3209 18.4903 12.119 17.9789 12.119ZM22.3658 18.0777L23.5887 19.651C23.6582 19.7296 23.6443 19.8345 23.5331 19.9C22.5048 20.6998 21.3097 21.2242 20.059 21.4995L22.6438 25.7996C22.7132 25.9307 22.6299 26.0749 22.477 26.0749H19.9479C19.8645 26.0749 19.795 26.0224 19.7672 25.9569L17.9607 22.155L16.1542 25.9569C16.1264 26.0355 16.0569 26.0749 15.9735 26.0749H13.4444C13.3054 26.0749 13.2081 25.9176 13.2776 25.7996L15.8623 21.4995C14.6117 21.2242 13.4166 20.6866 12.3883 19.9C12.3188 19.8345 12.3049 19.7296 12.3605 19.651L13.5833 18.0777C13.6528 17.9991 13.7918 17.986 13.8752 18.0515C15.0286 18.9823 16.446 19.5854 17.9746 19.5854C19.5032 19.5854 20.9206 18.9823 22.074 18.0515C22.1574 17.9729 22.2963 17.986 22.3658 18.0777Z" fill="white"/>
</svg>
