<svg width="36" height="36" viewBox="0 0 36 36" fill="none" xmlns="http://www.w3.org/2000/svg">
<rect width="36" height="36" rx="12" fill="#8E8888"/>
<path d="M23.6943 24.5989L26.332 11.3096C26.332 10.4247 25.1154 10.9612 25.121 10.9612L10.318 16.768C10.318 16.768 9.61577 17.0058 9.67107 17.4482C9.72637 17.8907 10.2959 18.0953 10.2959 18.0953L14.0174 19.3507L14.0248 19.3542C14.0241 19.3519 14.0237 19.3507 14.0237 19.3507L22.9652 13.6711C22.9652 13.6711 23.4794 13.3558 23.4629 13.6711C23.4629 13.6711 23.5569 13.7264 23.2804 13.9863C23.0039 14.2462 16.2577 20.3074 16.2577 20.3074L16.2433 20.4288L22.3119 25.0801C23.3238 25.5225 23.6943 24.5989 23.6943 24.5989Z" fill="white"/>
</svg>
