<svg xmlns="http://www.w3.org/2000/svg" width="31" height="31" fill="none"><path fill-rule="evenodd" clip-rule="evenodd" d="M15.507 5.58l-3.759 7.358a2.665 2.665 0 01-4.174.753L3.776 10.21l2.52 15.153c.047.282.29.488.576.488h17.213a.584.584 0 00.576-.488l2.55-15.224-3.954 3.56a2.665 2.665 0 01-4.178-.81l-3.572-7.31zm-1.321-3.438a3.021 3.021 0 012.713.03 3.09 3.09 0 011.054.895l.094.125.068.14 3.569 7.303 3.87-3.485h.001a3.021 3.021 0 013.528-.383c.552.314.987.79 1.258 1.354a3.18 3.18 0 01.281 1.81l-.003.023-.004.024-2.67 15.936a3.914 3.914 0 01-3.86 3.267H6.872a3.914 3.914 0 01-3.86-3.272L.371 10.044l-.002-.018-.003-.019a3.18 3.18 0 01.278-1.821A3.101 3.101 0 011.91 6.824a3.02 3.02 0 013.544.408l3.725 3.413 3.76-7.363.073-.142.099-.126a3.077 3.077 0 011.074-.872z" fill="#FF7600"/></svg>