<svg width="40" height="40" fill="none" xmlns="http://www.w3.org/2000/svg"><path d="M18.572 7.373a1.667 1.667 0 012.856 0l3.146 5.226c.232.387.612.663 1.052.765l5.942 1.376a1.667 1.667 0 01.883 2.716l-3.999 4.607c-.296.34-.44.787-.402 1.236l.528 6.077a1.667 1.667 0 01-2.31 1.679l-5.617-2.38a1.667 1.667 0 00-1.3 0l-5.617 2.38a1.667 1.667 0 01-2.311-1.679l.527-6.077a1.667 1.667 0 00-.401-1.236L7.55 17.456a1.667 1.667 0 01.883-2.716l5.942-1.376c.44-.102.82-.378 1.052-.765l3.145-5.226z" stroke="#FF7600" stroke-width="3.333"/></svg>