<svg width="104" height="44" fill="none" xmlns="http://www.w3.org/2000/svg"><path fill-rule="evenodd" clip-rule="evenodd" d="M0 0h104c-6.627 0-12 5.373-12 12v4c0 8.837-7.163 16-16 16H12C5.373 32 0 37.373 0 44V0z" fill="#fff"/><path d="M13.44 21V9.576h3.648c1.472 0 2.544.299 3.216.896.683.597 1.024 1.419 1.024 2.464 0 .619-.139 1.2-.416 1.744-.277.544-.741.981-1.392 1.312-.64.33-1.515.496-2.624.496h-1.04V21H13.44zm-1.28-1.712v-1.552h6.16v1.552h-6.16zm0-2.8v-1.984h4.688v1.984H12.16zm4.496-1.984a4.28 4.28 0 001.184-.144c.33-.107.587-.272.768-.496.181-.224.272-.507.272-.848 0-.49-.155-.853-.464-1.088-.31-.245-.795-.368-1.456-.368h-1.104v2.944h.8z" fill="#FF7600"/><path d="M26.394 17.72c0-.373.064-.73.192-1.072a2.85 2.85 0 01.512-.88 5.295 5.295 0 011.024-.992c-.79-.608-1.184-1.344-1.184-2.208 0-.864.314-1.6.944-2.208.63-.608 1.53-.912 2.704-.912 1.077 0 1.957.283 2.64.848.693.565 1.04 1.328 1.04 2.288 0 .96-.422 1.904-1.264 2.832.97.619 1.456 1.419 1.456 2.4 0 .917-.368 1.712-1.104 2.384-.726.661-1.696.992-2.912.992-1.195 0-2.17-.33-2.928-.992-.747-.672-1.12-1.499-1.12-2.48zm5.072-3.072c.522-.64.784-1.275.784-1.904 0-.448-.16-.8-.48-1.056-.31-.267-.72-.4-1.232-.4-.49 0-.875.123-1.152.368a1.2 1.2 0 00-.416.944c0 .117.01.23.032.336.032.096.08.197.144.304.074.096.133.181.176.256.053.064.144.139.272.224.138.085.24.155.304.208.074.043.197.107.368.192.181.085.304.144.368.176.074.021.218.08.432.176.213.096.346.155.4.176zm-2.96 2.912c0 .512.192.944.576 1.296a1.98 1.98 0 001.36.512c.544 0 .997-.15 1.36-.448.373-.31.56-.704.56-1.184 0-.203-.048-.384-.144-.544-.086-.16-.246-.315-.48-.464a5.413 5.413 0 00-.576-.368 11.93 11.93 0 00-.8-.368c-.374-.16-.635-.277-.784-.352-.715.608-1.072 1.248-1.072 1.92zm7.685-1.744c0-.608.064-1.21.192-1.808a7.05 7.05 0 01.64-1.712 6.35 6.35 0 011.024-1.456 4.356 4.356 0 011.472-1.008 4.708 4.708 0 011.904-.384c.886 0 1.664.16 2.336.48l-.608 1.776c-.426-.235-.965-.352-1.616-.352-.832 0-1.504.293-2.016.88s-.842 1.307-.992 2.16h.032c.192-.235.491-.427.896-.576a3.54 3.54 0 011.232-.224c1.088 0 1.963.368 2.624 1.104.672.736 1.008 1.637 1.008 2.704 0 1.067-.346 1.968-1.04 2.704-.693.725-1.589 1.088-2.688 1.088-1.237 0-2.282-.485-3.136-1.456-.842-.97-1.264-2.277-1.264-3.92zm4.416 3.488c.502 0 .907-.181 1.216-.544.31-.363.464-.816.464-1.36 0-.608-.186-1.11-.56-1.504-.362-.405-.869-.608-1.52-.608-.522 0-.965.117-1.328.352-.362.224-.544.533-.544.928 0 .661.224 1.285.672 1.872.448.576.982.864 1.6.864zm15.369 1.44c-.544.299-1.19.448-1.936.448-.747 0-1.398-.15-1.952-.448a3.214 3.214 0 01-1.28-1.28 6.75 6.75 0 01-.688-1.856 11.63 11.63 0 01-.208-2.304c0-.853.069-1.621.208-2.304a6.48 6.48 0 01.688-1.84 3.241 3.241 0 011.28-1.264c.544-.299 1.194-.448 1.952-.448 2.741 0 4.112 1.952 4.112 5.856 0 .853-.075 1.621-.224 2.304a6.396 6.396 0 01-.672 1.856 3.084 3.084 0 01-1.28 1.28zm-3.936-5.44c0 2.667.666 4 2 4 1.333 0 2-1.333 2-4 0-2.635-.667-3.952-2-3.952-1.334 0-2 1.317-2 3.952zm13.982 5.44c-.544.299-1.189.448-1.936.448-.746 0-1.397-.15-1.951-.448a3.213 3.213 0 01-1.28-1.28 6.747 6.747 0 01-.688-1.856 11.622 11.622 0 01-.209-2.304c0-.853.07-1.621.209-2.304a6.48 6.48 0 01.688-1.84 3.241 3.241 0 011.28-1.264c.544-.299 1.194-.448 1.952-.448 2.74 0 4.111 1.952 4.111 5.856 0 .853-.074 1.621-.223 2.304a6.402 6.402 0 01-.672 1.856 3.085 3.085 0 01-1.28 1.28zm-3.936-5.44c0 2.667.667 4 2 4 1.334 0 2-1.333 2-4 0-2.635-.666-3.952-2-3.952-1.333 0-2 1.317-2 3.952zm13.983 5.44c-.544.299-1.189.448-1.936.448-.746 0-1.397-.15-1.952-.448a3.213 3.213 0 01-1.28-1.28 6.744 6.744 0 01-.688-1.856 11.622 11.622 0 01-.208-2.304c0-.853.07-1.621.208-2.304.15-.683.379-1.296.688-1.84.31-.544.736-.965 1.28-1.264.544-.299 1.195-.448 1.952-.448 2.742 0 4.112 1.952 4.112 5.856 0 .853-.074 1.621-.224 2.304a6.402 6.402 0 01-.672 1.856 3.085 3.085 0 01-1.28 1.28zm-3.936-5.44c0 2.667.667 4 2 4 1.334 0 2-1.333 2-4 0-2.635-.666-3.952-2-3.952-1.333 0-2 1.317-2 3.952z" fill="#000"/></svg>