<svg xmlns="http://www.w3.org/2000/svg" width="31" height="31" viewBox="0 0 31 31" fill="none">
<path fill-rule="evenodd" clip-rule="evenodd" d="M15.5066 5.57925L11.7483 12.9379C10.9474 14.5061 8.87275 14.8802 7.57448 13.6906L3.77615 10.2099L6.29609 25.3628C6.34293 25.6445 6.58658 25.851 6.87212 25.851H24.0851C24.3704 25.851 24.6139 25.6449 24.6611 25.3635L27.2116 10.1385L23.2569 13.6993C21.941 14.8841 19.8569 14.4799 19.0794 12.8891L15.5066 5.57925ZM14.1856 2.1421C14.6081 1.93576 15.0734 1.82981 15.546 1.83515C16.0187 1.8405 16.4813 1.95694 16.8989 2.17253C17.3161 2.38795 17.6753 2.69547 17.9531 3.06736L18.0465 3.19244L18.1151 3.33271L21.684 10.6346L25.5539 7.15018L25.5551 7.14906C26.0257 6.72623 26.6178 6.45594 27.2545 6.38581C27.8916 6.31563 28.5305 6.45068 29.0834 6.76613C29.6353 7.081 30.0704 7.55717 30.3408 8.12108C30.6109 8.68438 30.7075 9.31504 30.6221 9.93103L30.6189 9.95433L30.615 9.97754L27.9453 25.9137C27.6294 27.7995 25.9972 29.181 24.0851 29.181H6.87212C4.9583 29.181 3.32516 27.797 3.0112 25.9091L0.372874 10.0442L0.369801 10.0258L0.367145 10.0072C0.278402 9.38779 0.373862 8.75275 0.64508 8.18569C0.916603 7.61799 1.35489 7.13905 1.9112 6.82373C2.46855 6.50782 3.11222 6.37497 3.75281 6.44989C4.39275 6.52473 4.98605 6.8017 5.45494 7.23157C5.45501 7.23164 5.45509 7.23171 5.45516 7.23178C5.45529 7.23189 5.45541 7.232 5.45553 7.23212L9.18012 10.6452L12.9409 3.28168L13.0134 3.1397L13.1116 3.01406C13.3975 2.64802 13.7634 2.34829 14.1856 2.1421Z" fill="#FF7600"/>
</svg>
