<svg width="40" height="40" viewBox="0 0 40 40" fill="none" xmlns="http://www.w3.org/2000/svg">
<path d="M18.5723 7.37295C19.2201 6.29658 20.7806 6.29658 21.4284 7.37295L24.5737 12.5994C24.8064 12.986 25.186 13.2618 25.6256 13.3637L31.5682 14.74C32.792 15.0234 33.2743 16.5075 32.4507 17.4562L28.4521 22.0626C28.1562 22.4034 28.0113 22.8496 28.0503 23.2993L28.5777 29.3763C28.6863 30.6278 27.4238 31.5451 26.2671 31.055L20.6505 28.6755C20.2349 28.4995 19.7658 28.4995 19.3502 28.6755L13.7336 31.055C12.5769 31.5451 11.3144 30.6278 11.423 29.3763L11.9504 23.2993C11.9894 22.8496 11.8445 22.4034 11.5486 22.0626L7.54995 17.4562C6.72644 16.5075 7.20866 15.0234 8.43251 14.74L14.3751 13.3637C14.8147 13.2618 15.1943 12.986 15.427 12.5994L18.5723 7.37295Z" stroke="#FF7600" stroke-width="3.33333"/>
</svg>
