<svg width="104" height="44" viewBox="0 0 104 44" fill="none" xmlns="http://www.w3.org/2000/svg">
<path fill-rule="evenodd" clip-rule="evenodd" d="M0 0H92H104C97.3726 0 92 5.37258 92 12V16C92 24.8366 84.8366 32 76 32H12C5.37258 32 0 37.3726 0 44V32V0Z" fill="white"/>
<path d="M13.44 21V9.576H17.088C18.56 9.576 19.632 9.87467 20.304 10.472C20.9867 11.0693 21.328 11.8907 21.328 12.936C21.328 13.5547 21.1893 14.136 20.912 14.68C20.6347 15.224 20.1707 15.6613 19.52 15.992C18.88 16.3227 18.0053 16.488 16.896 16.488H15.856V21H13.44ZM12.16 19.288V17.736H18.32V19.288H12.16ZM12.16 16.488V14.504H16.848V16.488H12.16ZM16.656 14.504C17.1147 14.504 17.5093 14.456 17.84 14.36C18.1707 14.2533 18.4267 14.088 18.608 13.864C18.7893 13.64 18.88 13.3573 18.88 13.016C18.88 12.5253 18.7253 12.1627 18.416 11.928C18.1067 11.6827 17.6213 11.56 16.96 11.56H15.856V14.504H16.656Z" fill="#FF7600"/>
<path d="M26.3938 17.72C26.3938 17.3467 26.4578 16.9893 26.5858 16.648C26.7138 16.3067 26.8844 16.0133 27.0978 15.768C27.3111 15.512 27.4924 15.3147 27.6418 15.176C27.8018 15.0267 27.9618 14.8933 28.1218 14.776C27.3324 14.168 26.9378 13.432 26.9378 12.568C26.9378 11.704 27.2524 10.968 27.8818 10.36C28.5111 9.752 29.4124 9.448 30.5858 9.448C31.6631 9.448 32.5431 9.73067 33.2258 10.296C33.9191 10.8613 34.2658 11.624 34.2658 12.584C34.2658 13.544 33.8444 14.488 33.0018 15.416C33.9724 16.0347 34.4578 16.8347 34.4578 17.816C34.4578 18.7333 34.0898 19.528 33.3538 20.2C32.6284 20.8613 31.6578 21.192 30.4418 21.192C29.2471 21.192 28.2711 20.8613 27.5138 20.2C26.7671 19.528 26.3938 18.7013 26.3938 17.72ZM31.4658 14.648C31.9884 14.008 32.2498 13.3733 32.2498 12.744C32.2498 12.296 32.0898 11.944 31.7698 11.688C31.4604 11.4213 31.0498 11.288 30.5378 11.288C30.0471 11.288 29.6631 11.4107 29.3858 11.656C29.1084 11.9013 28.9698 12.216 28.9698 12.6C28.9698 12.7173 28.9804 12.8293 29.0018 12.936C29.0338 13.032 29.0818 13.1333 29.1458 13.24C29.2204 13.336 29.2791 13.4213 29.3218 13.496C29.3751 13.56 29.4658 13.6347 29.5938 13.72C29.7324 13.8053 29.8338 13.8747 29.8978 13.928C29.9724 13.9707 30.0951 14.0347 30.2658 14.12C30.4471 14.2053 30.5698 14.264 30.6338 14.296C30.7084 14.3173 30.8524 14.376 31.0658 14.472C31.2791 14.568 31.4124 14.6267 31.4658 14.648ZM28.5058 17.56C28.5058 18.072 28.6978 18.504 29.0818 18.856C29.4658 19.1973 29.9191 19.368 30.4418 19.368C30.9858 19.368 31.4391 19.2187 31.8018 18.92C32.1751 18.6107 32.3618 18.216 32.3618 17.736C32.3618 17.5333 32.3138 17.352 32.2178 17.192C32.1324 17.032 31.9724 16.8773 31.7378 16.728C31.5138 16.568 31.3218 16.4453 31.1618 16.36C31.0018 16.2747 30.7351 16.152 30.3618 15.992C29.9884 15.832 29.7271 15.7147 29.5778 15.64C28.8631 16.248 28.5058 16.888 28.5058 17.56ZM36.1914 15.816C36.1914 15.208 36.2554 14.6053 36.3834 14.008C36.522 13.4107 36.7354 12.84 37.0234 12.296C37.3114 11.7413 37.6527 11.256 38.0474 10.84C38.4527 10.4133 38.9434 10.0773 39.5194 9.832C40.106 9.576 40.7407 9.448 41.4234 9.448C42.3087 9.448 43.0874 9.608 43.7594 9.928L43.1514 11.704C42.7247 11.4693 42.186 11.352 41.5354 11.352C40.7034 11.352 40.0314 11.6453 39.5194 12.232C39.0074 12.8187 38.6767 13.5387 38.5274 14.392H38.5594C38.7514 14.1573 39.05 13.9653 39.4554 13.816C39.8607 13.6667 40.2714 13.592 40.6874 13.592C41.7754 13.592 42.65 13.96 43.3114 14.696C43.9834 15.432 44.3194 16.3333 44.3194 17.4C44.3194 18.4667 43.9727 19.368 43.2794 20.104C42.586 20.8293 41.69 21.192 40.5914 21.192C39.354 21.192 38.3087 20.7067 37.4554 19.736C36.6127 18.7653 36.1914 17.4587 36.1914 15.816ZM40.6074 19.304C41.1087 19.304 41.514 19.1227 41.8234 18.76C42.1327 18.3973 42.2874 17.944 42.2874 17.4C42.2874 16.792 42.1007 16.2907 41.7274 15.896C41.3647 15.4907 40.858 15.288 40.2074 15.288C39.6847 15.288 39.242 15.4053 38.8794 15.64C38.5167 15.864 38.3354 16.1733 38.3354 16.568C38.3354 17.2293 38.5594 17.8533 39.0074 18.44C39.4554 19.016 39.9887 19.304 40.6074 19.304ZM55.9756 20.744C55.4316 21.0427 54.7863 21.192 54.0396 21.192C53.293 21.192 52.6423 21.0427 52.0876 20.744C51.5436 20.4453 51.117 20.0187 50.8076 19.464C50.4983 18.9093 50.269 18.2907 50.1196 17.608C49.981 16.9253 49.9116 16.1573 49.9116 15.304C49.9116 14.4507 49.981 13.6827 50.1196 13C50.269 12.3173 50.4983 11.704 50.8076 11.16C51.117 10.616 51.5436 10.1947 52.0876 9.896C52.6316 9.59733 53.2823 9.448 54.0396 9.448C56.781 9.448 58.1516 11.4 58.1516 15.304C58.1516 16.1573 58.077 16.9253 57.9276 17.608C57.789 18.2907 57.565 18.9093 57.2556 19.464C56.957 20.0187 56.5303 20.4453 55.9756 20.744ZM52.0396 15.304C52.0396 17.9707 52.7063 19.304 54.0396 19.304C55.373 19.304 56.0396 17.9707 56.0396 15.304C56.0396 12.6693 55.373 11.352 54.0396 11.352C52.7063 11.352 52.0396 12.6693 52.0396 15.304ZM66.0225 20.744C65.4785 21.0427 64.8332 21.192 64.0865 21.192C63.3398 21.192 62.6892 21.0427 62.1345 20.744C61.5905 20.4453 61.1638 20.0187 60.8545 19.464C60.5452 18.9093 60.3158 18.2907 60.1665 17.608C60.0278 16.9253 59.9585 16.1573 59.9585 15.304C59.9585 14.4507 60.0278 13.6827 60.1665 13C60.3158 12.3173 60.5452 11.704 60.8545 11.16C61.1638 10.616 61.5905 10.1947 62.1345 9.896C62.6785 9.59733 63.3292 9.448 64.0865 9.448C66.8278 9.448 68.1985 11.4 68.1985 15.304C68.1985 16.1573 68.1238 16.9253 67.9745 17.608C67.8358 18.2907 67.6118 18.9093 67.3025 19.464C67.0038 20.0187 66.5772 20.4453 66.0225 20.744ZM62.0865 15.304C62.0865 17.9707 62.7532 19.304 64.0865 19.304C65.4198 19.304 66.0865 17.9707 66.0865 15.304C66.0865 12.6693 65.4198 11.352 64.0865 11.352C62.7532 11.352 62.0865 12.6693 62.0865 15.304ZM76.0694 20.744C75.5254 21.0427 74.88 21.192 74.1334 21.192C73.3867 21.192 72.736 21.0427 72.1814 20.744C71.6374 20.4453 71.2107 20.0187 70.9014 19.464C70.592 18.9093 70.3627 18.2907 70.2134 17.608C70.0747 16.9253 70.0054 16.1573 70.0054 15.304C70.0054 14.4507 70.0747 13.6827 70.2134 13C70.3627 12.3173 70.592 11.704 70.9014 11.16C71.2107 10.616 71.6374 10.1947 72.1814 9.896C72.7254 9.59733 73.376 9.448 74.1334 9.448C76.8747 9.448 78.2454 11.4 78.2454 15.304C78.2454 16.1573 78.1707 16.9253 78.0214 17.608C77.8827 18.2907 77.6587 18.9093 77.3494 19.464C77.0507 20.0187 76.624 20.4453 76.0694 20.744ZM72.1334 15.304C72.1334 17.9707 72.8 19.304 74.1334 19.304C75.4667 19.304 76.1334 17.9707 76.1334 15.304C76.1334 12.6693 75.4667 11.352 74.1334 11.352C72.8 11.352 72.1334 12.6693 72.1334 15.304Z" fill="black"/>
</svg>
